<svg xmlns="http://www.w3.org/2000/svg" xmlns:xlink="http://www.w3.org/1999/xlink" width="17" height="20" viewBox="0 0 17 20">
    <path  d="M8.5 20c4.687 0 8.5-3.888 8.5-8.667 0-4.778-3.813-8.666-8.5-8.666H7.463l1.5-1.529a.675.675 0 0 0 0-.943.644.644 0 0 0-.925 0L5.422 2.862a.675.675 0 0 0 0 .943L8.038 6.47a.646.646 0 0 0 .924 0 .675.675 0 0 0 0-.942L7.463 4H8.5c3.966 0 7.192 3.29 7.192 7.333 0 4.044-3.226 7.334-7.192 7.334s-7.192-3.29-7.192-7.334a.66.66 0 0 0-.654-.666.66.66 0 0 0-.654.666C0 16.113 3.813 20 8.5 20"/>
</svg>
