<svg xmlns="http://www.w3.org/2000/svg" xmlns:xlink="http://www.w3.org/1999/xlink" width="308" height="227" viewBox="0 0 308 227">
  <path d="M138.964 133.942C115.76 133.942 0 132.635 0 106.802 0 80.97 115.76 79.66 138.964 79.66c27.357 0 47.889 1.113 70.866 3.842a4.862 4.862 0 0 1 4.257 5.405c-.315 2.671-2.776 4.565-5.402 4.257-22.571-2.681-42.77-3.777-69.721-3.777-87.035 0-127.13 11.438-129.256 17.562 2.12 5.826 42.212 17.265 129.256 17.265 91.842 0 122.707-12.778 123.556-17.433 0-3.534-14.609-6.465-27.33-8.624a4.865 4.865 0 0 1-3.982-5.61c.45-2.648 2.993-4.415 5.606-3.98 22.043 3.741 35.43 6.834 35.43 18.233.003 25.188-102.013 27.143-133.28 27.143"/>
  <path d="M138.964 226.152C21.204 226.152.267 108.788.069 107.608a4.864 4.864 0 0 1 3.99-5.6c2.66-.47 5.156 1.346 5.603 3.988.759 4.513 19.871 110.43 129.302 110.43 45.898 0 80.618-18.48 103.202-54.938 16.963-27.386 20.354-54.976 20.39-55.252a4.87 4.87 0 0 1 5.398-4.263 4.872 4.872 0 0 1 4.264 5.398c-.14 1.187-15.293 118.781-133.254 118.781"/>
  <g transform="translate(168.59 2.448)">
    <path d="M5.863 127.814a4.847 4.847 0 0 1-3.346-1.336 4.859 4.859 0 0 1-.184-6.873c.813-.86 81.62-86.065 99.908-107.49C112.234.416 120.948.218 125.254 1.123c5.307 1.125 9.415 4.986 11.004 10.326 1.88 6.345-.169 13.302-5.48 18.613-12.722 12.722-88.888 94.121-89.65 94.942a4.86 4.86 0 0 1-6.874.23 4.857 4.857 0 0 1-.23-6.873c3.139-3.356 77.042-82.34 89.881-95.176 2.75-2.746 3.878-6.101 3.032-8.97-.561-1.894-1.907-3.197-3.696-3.577-3.67-.775-8.757 2.127-13.595 7.794C91.19 40.046 12.724 122.785 9.397 126.296a4.877 4.877 0 0 1-3.534 1.518"/>
  </g>
</svg>
