<svg xmlns="http://www.w3.org/2000/svg" xmlns:xlink="http://www.w3.org/1999/xlink" width="71" height="66" viewBox="0 0 71 66">
    <g >
        <path  d="M67.064 28.167a13.323 13.323 0 0 0-7.872-3.89c.026-.45.04-.898.04-1.343C59.232 10.356 48.968.123 36.353.123c-11.156 0-20.665 8.053-22.543 18.9C5.984 20.122 0 26.885 0 34.872 0 43.698 7.202 50.88 16.055 50.88c.197 0 .4-.004.638-.014.189.01.367.014.542.014h9.358c.738 0 1.336-.596 1.336-1.332 0-.736-.598-1.332-1.336-1.332h-9.358c-.146 0-.297-.004-.46-.014l-.067-.003-.066.003c-.225.01-.412.014-.587.014-7.38 0-13.383-5.986-13.383-13.344 0-6.958 5.448-12.802 12.403-13.304l1.094-.079.136-1.084c1.26-10.043 9.88-17.617 20.048-17.617 11.142 0 20.206 9.038 20.206 20.147 0 .798-.048 1.61-.145 2.415l-.175 1.462 1.477.028a10.676 10.676 0 0 1 7.443 3.196 10.607 10.607 0 0 1 3.073 7.49c0 5.894-4.81 10.69-10.723 10.69-.255 0-.521-.01-.79-.03l-.101-.007-.102.008c-.247.02-.463.03-.659.03h-9.555c-.738 0-1.336.595-1.336 1.331s.598 1.332 1.336 1.332h9.555c.239 0 .49-.01.768-.03.3.02.596.03.884.03 7.386 0 13.395-5.99 13.395-13.355 0-3.522-1.364-6.845-3.84-9.357"/>
        <g transform="translate(24 24)">
            <path d="M21.595 10.506L11.048.078.501 10.506a1.337 1.337 0 0 0 0 1.906 1.374 1.374 0 0 0 1.928 0l7.256-7.175v34.416c0 .744.61 1.347 1.363 1.347s1.363-.603 1.363-1.347V5.237l7.257 7.175c.266.263.615.394.964.394.348 0 .697-.131.963-.394a1.337 1.337 0 0 0 0-1.906" />
        </g>
    </g>
</svg>
