<svg xmlns="http://www.w3.org/2000/svg" xmlns:xlink="http://www.w3.org/1999/xlink" width="308" height="308" viewBox="0 0 308 308">
  <path d="M103.404 16.395a9.804 9.804 0 0 1-.274-.263c-12.32 17.044-16.435 40.59-11.58 66.836.039.176.056.353.067.526 29.612 8.378 60.118 27.235 86.27 53.384 25.81 25.81 44.501 55.866 53.05 85.12 28.44 7.35 52.186 3.45 67.036-11.03L103.403 16.395zm175.013 214.153c-13.064 3.672-28.426 3.676-45.307-.142 3.817 16.878 3.806 32.233.138 45.318l45.169-45.176zm-65.009 65.002c14.646-14.773 18.684-38.607 11.348-67.15-7.534-29.344-26.104-59.912-52.28-86.099-26.177-26.176-56.76-44.75-86.102-52.287-28.63-7.358-52.533-3.277-67.3 11.49a45.035 45.035 0 0 0-2.208 2.38l194.116 194.11 2.426-2.43v-.014zM27.393 58.373l-4.516 6.942 22.64 14.725c4.232-.765 8.669-1.173 13.278-1.239L27.393 58.373zm31.71-8.268l22.789 31.029c.547.107 1.09.218 1.633.335a124.17 124.17 0 0 1-1.536-15.14l-1.083-2.481L66.71 44.52l-7.607 5.585zm11.49-29.038L82.74 48.9a90.61 90.61 0 0 1 2.917-14.016l-7.475-17.133-7.59 3.315zM12.02 97.72c.031-.031 1.312-1.308 1.633-1.637a54.853 54.853 0 0 1 7.337-6.136c-2.25-3.121-1.98-7.5.824-10.306a7.942 7.942 0 0 1 5.457-2.332L15.49 69.648a3.831 3.831 0 0 1-1.122-5.298l8.69-13.362a3.835 3.835 0 0 1 2.416-1.661 3.839 3.839 0 0 1 2.879.54l5.682 3.696a8.562 8.562 0 0 1 1.634-2.298 8.617 8.617 0 0 1 7.264-2.433 11.14 11.14 0 0 1 2.218-3.177c.208-.208.419-.395.64-.581-2.374-3.364-2.062-8.047.948-11.054 3.08-3.08 7.89-3.336 11.268-.792a5.043 5.043 0 0 1 3.24-.97 14.422 14.422 0 0 1 3.422-5.436c.014-.017.038-.035.056-.052l-2.675-6.143a3.822 3.822 0 0 1 1.972-5.042l14.604-6.378a3.84 3.84 0 0 1 5.046 1.973l5.82 13.34a73.437 73.437 0 0 1 7.472-12.928c-17.255-9.386-44.985-1.82-66.088 19.282C9.453 52.296 1.985 80.528 12.02 97.721zm96.795-86.745L306.11 208.269a3.814 3.814 0 0 1 0 5.412l-92.424 92.435a3.827 3.827 0 0 1-5.413 0L10.98 108.823c-9.392-9.396-12.925-23.38-9.953-39.376 2.876-15.476 11.556-31.094 24.44-43.982C38.35 12.585 53.968 3.902 69.444 1.03c15.992-2.98 29.976.553 39.372 9.946zm16.867 164.655a1.463 1.463 0 0 0-.906-1.852 1.465 1.465 0 0 0-1.859.91 1.457 1.457 0 0 0 .91 1.859 1.475 1.475 0 0 0 1.855-.917zm79.309-36.697a1.476 1.476 0 0 0-1.194 1.696c.142.792.9 1.325 1.695 1.19a1.474 1.474 0 0 0 1.19-1.692 1.472 1.472 0 0 0-1.691-1.194zm64.725 61.223a1.463 1.463 0 1 0 .505 2.882 1.46 1.46 0 0 0 1.183-1.688 1.459 1.459 0 0 0-1.688-1.194zm-132.35 0a1.46 1.46 0 0 0-.907-1.859 1.48 1.48 0 0 0-1.862.914 1.455 1.455 0 0 0 .91 1.848 1.453 1.453 0 0 0 1.859-.903zm85.267-23.914c.793-.145 1.333-.9 1.19-1.688a1.467 1.467 0 0 0-1.685-1.201c-.789.149-1.336.907-1.187 1.699a1.448 1.448 0 0 0 1.682 1.19zm-68.227-25.152a1.46 1.46 0 0 0 .907 1.855 1.46 1.46 0 1 0 .945-2.765 1.448 1.448 0 0 0-1.852.91zm-13.02-72.864a1.46 1.46 0 0 0 2.063-.045 1.454 1.454 0 0 0-.045-2.066 1.456 1.456 0 0 0-2.062.041 1.458 1.458 0 0 0 .045 2.07zm37.73 171.473a1.462 1.462 0 0 0-2.907.298 1.456 1.456 0 0 0 1.602 1.308 1.459 1.459 0 0 0 1.304-1.606zm4.643-25.658c-.796.083-1.384.8-1.297 1.613a1.448 1.448 0 0 0 1.595 1.298 1.454 1.454 0 0 0 1.305-1.603 1.457 1.457 0 0 0-1.603-1.308zm24.474 54.104a1.47 1.47 0 0 0-1.3 1.62c.068.793.788 1.377 1.591 1.298a1.462 1.462 0 0 0 1.312-1.602 1.468 1.468 0 0 0-1.603-1.316zM74.87 103.016a1.457 1.457 0 0 0 .049 2.066 1.46 1.46 0 1 0-.048-2.066zm15.296 17.303a1.463 1.463 0 0 0 .042 2.066 1.46 1.46 0 1 0-.042-2.066zm16.501-76.93a1.461 1.461 0 0 0-.042-2.07 1.472 1.472 0 0 0-2.072.048 1.46 1.46 0 0 0 .044 2.066 1.468 1.468 0 0 0 2.07-.045zm-51.65 75.95a1.46 1.46 0 0 0-.042-2.065 1.46 1.46 0 1 0-2.021 2.111c.581.56 1.505.54 2.062-.045zm50.435-45.05a1.468 1.468 0 0 0 .045 2.069 1.464 1.464 0 0 0 2.066-.045 1.451 1.451 0 0 0-.045-2.066 1.463 1.463 0 0 0-2.066.042zm12.832-23.329a3.523 3.523 0 0 0-6.617-2.419 3.517 3.517 0 0 0 2.101 4.516 3.514 3.514 0 0 0 4.516-2.097zm56.008 60.569a3.522 3.522 0 0 0 2.104 4.516 3.521 3.521 0 0 0 4.516-2.1c.665-1.824-.273-3.852-2.093-4.513a3.527 3.527 0 0 0-4.527 2.097zm22.778 138.714a3.507 3.507 0 0 0-2.668 4.201 3.519 3.519 0 0 0 4.205 2.675 3.507 3.507 0 0 0 2.668-4.208 3.517 3.517 0 0 0-4.205-2.668zm41.238-91.4a3.513 3.513 0 0 0-2.669 4.201 3.52 3.52 0 0 0 4.198 2.682 3.526 3.526 0 0 0 2.682-4.204 3.531 3.531 0 0 0-4.211-2.679zm-68.286 28.073a3.516 3.516 0 0 0 2.668-4.205c-.409-1.9-2.305-3.1-4.205-2.671a3.509 3.509 0 0 0-2.672 4.201 3.516 3.516 0 0 0 4.209 2.675zm82.627 17.414c-1.9.409-3.101 2.305-2.676 4.198a3.524 3.524 0 1 0 6.88-1.533 3.513 3.513 0 0 0-4.204-2.665zM84.76 148.523a3.523 3.523 0 1 0-4.126 5.712 3.523 3.523 0 0 0 4.126-5.712zm41.642-3.702a3.522 3.522 0 1 0-5.71-4.126 3.522 3.522 0 0 0 .793 4.918 3.511 3.511 0 0 0 4.917-.792zm-95.449-35.275a3.522 3.522 0 1 1 4.128-5.713 3.522 3.522 0 0 1-4.128 5.713z"/>
</svg>
