<svg xmlns="http://www.w3.org/2000/svg" xmlns:xlink="http://www.w3.org/1999/xlink" width="308" height="450" viewBox="0 0 308 450">
  <path d="M250.07 406.428c-13.846 8.682-105.16 61.257-196.617.063L35.94 262.66c21.794 14.98 69.862 22.904 115.817 22.904 45.951 0 94.019-7.924 115.813-22.904L250.07 406.428zM151.753 9.782c83.424 0 141.626 20.103 141.958 38.207l-.283 2.273c-4.303 17.561-61.258 36.242-141.675 36.242-80.403 0-137.354-18.666-141.68-36.227l-.28-2.298c.343-18.103 58.545-38.197 141.96-38.197zm0 193.58c-49.065 0-100.536 9.035-119.871 26.044L12.23 67.994C37.02 86.48 95.702 96.281 151.754 96.281c56.046 0 114.722-9.802 139.524-28.292l-19.659 161.412c-19.33-17.004-70.8-26.038-119.865-26.038zm117.983 41.488c-.86 13.053-45.545 30.932-117.983 30.932-72.395 0-117.07-17.86-117.989-30.908l-.059-.523c.24-13.068 45.09-31.21 118.048-31.21 72.961 0 117.812 18.147 118.042 31.215l-.059.494zm33.357-193.038a19.6 19.6 0 0 0 .352-2.89l.024-.19c0-.02-.004-.034-.004-.054.004-.18.044-.357.044-.538C303.51 16.871 225.322 0 151.758 0 78.186 0 .002 16.876.002 48.14c0 .176.03.348.035.524 0 .024-.01.044-.005.068l.03.244c.048.954.16 1.888.346 2.816L23.963 245.27c.039.778.132 1.545.283 2.303l19.766 162.306a4.889 4.889 0 0 0 2.083 3.437c35.141 24.102 70.327 32.13 101.635 32.13 62.148 0 108.993-31.656 109.697-32.14a4.893 4.893 0 0 0 2.073-3.427l19.76-162.311c.152-.753.24-1.52.274-2.293l23.56-193.463z"/>
</svg>
