<svg xmlns="http://www.w3.org/2000/svg" xmlns:xlink="http://www.w3.org/1999/xlink" width="305" height="212" viewBox="0 0 305 212">
    <path d="M107.648 57.14a6.171 6.171 0 0 1-.931 9.8c-8.601 5.212-18.85 5.145-27.5 5.095h-1.39c-7.586.062-17.09 2.833-19.775 9.31-2.684 6.474 1.762 14.088 6.047 21.456.99 1.696 1.946 3.33 2.807 4.932 5.43 10.081 6.852 18.713 4.319 26.389a34.783 34.783 0 0 1-12.71 16.03c-.771.616-1.542 1.202-2.344 1.819a42.65 42.65 0 0 0-9.067 8.416c-4.106 5.832-1.021 14.06 1.965 19.55a6.387 6.387 0 0 1-1.394 7.979A6.208 6.208 0 0 1 38.309 186c-6.88-12.359-7.4-24.045-1.293-32.705a50.69 50.69 0 0 1 11.658-11.098c.744-.585 1.48-1.14 2.19-1.726a24.073 24.073 0 0 0 8.641-10.173c1.385-4.223.213-9.865-3.486-16.74-.77-1.479-1.665-2.99-2.56-4.53-5.278-9.064-11.85-20.316-6.79-32.431 5.183-12.485 19.9-16.894 31.003-16.894h1.635c7.842.05 15.317.099 20.938-3.27a6.195 6.195 0 0 1 7.403.705M185.55 126.078c-1.53-7.694 3.313-15.223 11.032-17.153 6.056-1.426 12.372 1.025 15.809 6.137 1.158 1.81.603 4.203-1.233 5.343-.39.241-.82.415-1.269.51l-.548.121a3.964 3.964 0 0 1-4.112-1.445c-1.891-2.707-5.591-3.5-8.455-1.81a6.026 6.026 0 0 0-3.01 4.682c-.312 3.17 1.855 6.063 5.025 6.703a4.099 4.099 0 0 1 3.323 3l.142.624c.492 2.085-.824 4.17-2.944 4.655a4.014 4.014 0 0 1-1.363.076c-6.161-.875-11.115-5.444-12.397-11.443M196.893 74.339c-1.53-7.69 3.313-15.222 11.032-17.152 6.056-1.426 12.372 1.024 15.809 6.136 1.158 1.81.603 4.206-1.233 5.346-.39.241-.817.412-1.269.51l-.548.118a3.963 3.963 0 0 1-4.112-1.442c-1.891-2.706-5.591-3.499-8.452-1.813a6.027 6.027 0 0 0-3.013 4.685c-.312 3.17 1.855 6.062 5.025 6.7 1.613.261 2.92 1.438 3.323 3.002l.142.625c.492 2.084-.824 4.166-2.944 4.654a3.933 3.933 0 0 1-1.363.073c-6.161-.872-11.115-5.444-12.397-11.442M137.658 88.22c-1.53-7.69 3.31-15.222 11.03-17.152 6.056-1.426 12.372 1.024 15.81 6.136a3.843 3.843 0 0 1-1.233 5.346c-.39.241-.817.412-1.266.51l-.552.118a3.958 3.958 0 0 1-4.108-1.442c-1.892-2.706-5.593-3.499-8.457-1.813a6.034 6.034 0 0 0-3.012 4.685c-.313 3.17 1.857 6.062 5.025 6.7a4.09 4.09 0 0 1 3.322 3.002l.143.624c.492 2.085-.824 4.167-2.942 4.655a3.952 3.952 0 0 1-1.365.073c-6.162-.872-11.113-5.444-12.395-11.442M126.316 141.22c-1.533-7.693 3.31-15.222 11.029-17.152 6.056-1.426 12.373 1.024 15.81 6.136a3.843 3.843 0 0 1-1.233 5.347 3.96 3.96 0 0 1-1.266.506l-.548.122a3.962 3.962 0 0 1-4.112-1.445c-1.892-2.707-5.595-3.5-8.456-1.81a6.034 6.034 0 0 0-3.013 4.681c-.313 3.17 1.855 6.063 5.025 6.703 1.617.262 2.92 1.439 3.323 3l.142.628c.492 2.082-.823 4.166-2.941 4.654-.446.104-.91.125-1.366.073-6.161-.874-11.112-5.444-12.394-11.443"/>
    <path d="M198.304 37.818a98.236 98.236 0 0 0-41.095 8.865c-20.324 9.617-36.862 25.786-46.973 45.934-10.21 20.004-11.442 41.813-12.746 64.905-.185 3.322-.376 6.653-.588 9.979a45.899 45.899 0 0 1-5.666 19.333l191.041-65.118c9.08-4.538 12.973-15.464 8.817-24.753-10.912-24.345-31.147-43.242-56.123-52.408a103.453 103.453 0 0 0-36.667-6.737m-42.485-25.07c-5.422 0-10.73.264-15.82.753a142.569 142.569 0 0 0-72.966 29.065c-25 19.51-42.709 46.923-50.257 77.801-6.257 25.712-9.039 59.399 13.235 73.863a33.872 33.872 0 0 0 26.88 4.313l5.977-2.039a36.863 36.863 0 0 0 2.006-.943c11.254-5.377 18.777-16.389 19.73-28.865.212-3.288.4-6.585.585-9.874 1.315-23.36 2.677-47.517 14.079-69.848 21.603-43.9 69.37-68.323 117.437-60.045-17.499-10.248-40.007-14.18-60.886-14.18M48.26 212.002a45.635 45.635 0 0 1-24.94-7.378C.874 190.045-5.528 159.894 4.808 117.428c8.21-33.594 27.478-63.42 54.678-84.643a155.01 155.01 0 0 1 79.34-31.6c35.969-3.454 82.582 3.72 106.14 34.1 25.547 10.965 46.04 31.196 57.393 56.657a32.414 32.414 0 0 1-2.033 29.39 31.281 31.281 0 0 1-17.87 13.388L68.128 207.776l-.835.288a48.78 48.78 0 0 1-19.033 3.938"/>
</svg>
