<svg xmlns="http://www.w3.org/2000/svg" xmlns:xlink="http://www.w3.org/1999/xlink" width="221" height="279" viewBox="0 0 221 279">
    <path d="M50.505 59.494h11.987V47.506H50.505v11.988zM45 65h23V42H45v23z" />
    <path d="M63 55h47v-5H63zM111 37H78V24h5.564v7.595H111zM78.5 69.544c-4.388 0-7.956 3.57-7.956 7.956 0 4.388 3.568 7.956 7.956 7.956 4.385 0 7.956-3.568 7.956-7.956 0-4.385-3.57-7.956-7.956-7.956M78.5 91C71.054 91 65 84.946 65 77.5 65 70.057 71.054 64 78.5 64S92 70.057 92 77.5C92 84.946 85.946 91 78.5 91"/>
    <path d="M89 81h22v-5H89zM164.188 40.853c-7.652 0-15.32 2.633-21.875 7.552-9.206 6.632-14.993 16.624-15.514 26.753-.148 1.744 1.084 2.988 2.368 3.481 2.416.743 4.623 1.2 6.789 1.389 8.588.732 17.366-1.896 24.734-7.43 9.205-6.63 14.992-16.621 15.514-26.754l.005-.08c.142-1.66-1.09-2.905-2.37-3.4-2.414-.74-4.618-1.198-6.792-1.39a33.965 33.965 0 0 0-2.86-.121M138.813 85c-1.087 0-2.176-.044-3.26-.139-2.513-.219-5.034-.737-7.934-1.635-3.708-1.427-5.893-4.783-5.59-8.4.595-11.519 7.133-22.893 17.48-30.345 8.267-6.208 18.21-9.193 27.943-8.337 2.521.219 5.042.737 7.936 1.635 3.693 1.42 5.875 4.753 5.588 8.356-.61 11.588-7.144 22.946-17.484 30.39C156.148 82.04 147.483 85 138.812 85M34.162 178.632c3.965 0 6.608-4.133 6.723-5.412.46-4.251.518-6.23.518-7.511v-2.91c0-.698-2.99-2.56-5.174-2.56-5.17.055-6.55 3.898-6.954 6.169-.055.409-.344 2.152-.344 4.133 0 3.55.862 7.975 5.174 8.091h.057zm5.918 2.912c0-.699.346-1.514.346-2.445 0-.348-.06-.699-.174-1.047 0-.058-.057-.058-.057-.058-.344 0-1.492 3.666-6.666 3.956h-.804c-6.783 0-9.54-4.072-10.978-8.672a10.158 10.158 0 0 1-.458-3.027c0-5.94 4.424-13.39 12.586-13.39 4.653 0 6.551 2.27 7.124 2.27.175 0 .232-.174.232-.525v-.232c-.175-6.462.862-17.29-6.668-17.523-2.758.116-7.184 2.967-7.298 11.992 0 1.981-1.323 2.851-2.76 2.851-1.607 0-3.333-1.105-3.448-3.083 0-.406-.057-.873-.057-1.281 0-7.918 4.713-13.33 13.91-13.33h.975C48.011 138 51 148.07 51 158.084c0 8.385-2.125 16.766-2.7 19.211-.805 3.141-2.414 5.705-5.46 5.705-.172 0-.404-.058-.575-.058-1.781-.177-2.185-.64-2.185-1.398zM67.134 156.95c0 1.167 2.615 2.448 5.059 2.448 1.45 0 2.846-.464 3.486-1.806 1.628-3.033 2.615-9.913 2.615-15.8 0-5.482-.872-10.146-2.846-10.146h-.177c-2.557.41-7.439 6.239-7.497 8.164-.058 5.713-.234 11.427-.64 17.082v.058zm7.384 6.471c-2.325 0-4.534-.7-6.686-1.865-.292-.174-.524-.232-.698-.232-.29 0-.29.29-.347.872-.64 8.28.176 14.461-2.033 19.3-.643 1.572-2.733 2.504-4.708 2.504-1.862 0-3.547-.816-4.01-2.794-1.688-7.29-2.036-22.272-2.036-34.111 0-9.094.232-16.379.232-16.788.347-3.384 4.187-5.307 7.73-5.307 3.14 0 5.986 1.458 5.986 4.607v.058c0 .99-.058 2.041-.058 3.09.058.058.177.058.293.116 2.672-3.497 6.043-4.839 9.124-4.839 2.325 0 4.476.816 5.985 2.04 3.489 2.8 4.708 7.58 4.708 12.829 0 3.439-.521 6.994-1.277 10.317-1.222 5.306-4.534 8.978-10.111 10.029-.698.116-1.396.174-2.094.174zM103.137 156.95c0 1.167 2.615 2.448 5.056 2.448 1.45 0 2.846-.464 3.489-1.806 1.627-3.033 2.615-9.913 2.615-15.8 0-5.482-.875-10.146-2.85-10.146h-.176c-2.557.41-7.436 6.239-7.497 8.164-.055 5.713-.231 11.427-.637 17.082v.058zm7.381 6.471c-2.325 0-4.534-.7-6.683-1.865-.292-.174-.524-.232-.698-.232-.29 0-.29.29-.35.872-.637 8.28.176 14.461-2.033 19.3-.64 1.572-2.73 2.504-4.708 2.504-1.86 0-3.544-.816-4.01-2.794C90.35 173.916 90 158.934 90 147.095c0-9.094.232-16.379.232-16.788.35-3.384 4.187-5.307 7.73-5.307 3.142 0 5.989 1.458 5.989 4.607v.058c0 .99-.06 2.041-.06 3.09.06.058.176.058.292.116 2.675-3.497 6.043-4.839 9.126-4.839 2.323 0 4.474.816 5.983 2.04 3.489 2.8 4.708 7.58 4.708 12.829 0 3.439-.521 6.994-1.277 10.317-1.222 5.306-4.534 8.978-10.111 10.029-.698.116-1.396.174-2.094.174zM131.696 120c3.507 0 7.304 2.556 7.304 8.009v.292c-.519 10.85-1.381 44.917-1.785 52.634 0 2.671-2.358 4.065-4.659 4.065-2.298 0-4.599-1.336-4.66-4.18-1.32-10.851-1.607-36.791-1.896-55.483 0-3.478 2.762-5.337 5.696-5.337M155.892 141.35c-3.814 0-4.557 7.838-4.557 9.61v.289c0 .858.97 1.485 2.907 1.485 1.08 0 2.447-.228 4.155-.744 1.48-.456 2.105-1.887 2.105-3.603 0-2.862-1.708-6.41-3.759-6.923-.283-.057-.567-.114-.85-.114m-5.123 16.42c-.116 2.634-.173 4.92-.173 6.864 0 8.87 1.254 11.159 3.928 11.444.227 0 .454.06.627.06 4.385 0 5.58-4.467 6.203-8.586.173-1.257.227-2.573 1.767-2.63 1.308 0 1.878 1.086 1.878 2.744 0 4.578-4.612 13.334-11.101 13.334h-.284C145.36 180.712 142 168.125 142 160.287v-1.089c.227-10.583 2.22-22.198 11.331-22.198 1.138 0 2.445.174 3.812.573 5.693 1.602 7.346 7.094 7.346 11.099 0 1.26-.173 2.348-.4 3.147-1.367 5.321-10.704 5.55-13.32 5.951M183.859 181h-.172c-8.186-.058-13.283-3.695-15.285-7.157a4.474 4.474 0 0 1-.402-1.849c0-2.308 1.774-4.327 3.605-4.327.916 0 1.834.518 2.522 1.731 2.062 3.692 5.895 5.886 9.674 5.886h.172c2.69 0 4.752-1.21 5.439-2.884.171-.463.228-.866.228-1.271 0-6.349-20.724-8.195-20.724-22.623v-.406c.17-7.214 5.781-13.1 15-13.1h.516c7.843.115 12.595 5.483 12.595 11.714 0 1.907-.459 3.87-1.374 5.829-.916 2.369-3.035 3.407-4.98 3.407-1.948 0-3.723-1.096-3.723-2.944 0-.173.057-.346.057-.518.229-1.558.403-3.29.403-4.966 0-4.56-1.147-8.887-4.98-8.887h-.289c-4.808.29-5.898 6.003-5.898 10.043 0 .923.06 1.731.114 2.364C177.732 161.2 198 161.26 198 170.554c0 6.518-6.7 10.446-14.141 10.446M134.781 226.004v1.275c0 .765.318.765.956.765 1.206-.062 4.893-.19 7.756-.19 1.652 0 2.988.062 3.561.128.063 0 .19.062.253.062.255 0 .445-.256.445-.637.066-1.147.066-2.487.066-3.953 0-7.78-.639-18.428-2.864-22.252-.7-.957-1.907-1.594-3.178-1.594-1.146 0-2.29.575-2.926 1.912-3.113 6.121-4.069 18.235-4.069 24.484M128.612 251c-2.415 0-4.833-1.34-5.466-4.465-.763-3.89-1.146-8.098-1.146-12.432 0-16.45 5.278-34.37 11.953-40.553 1.844-1.657 4.197-2.55 6.487-2.55 2.162 0 4.324.7 6.041 2.294 6.612 5.93 8.519 22 8.519 35.897 0 6.57-.446 12.692-1.016 16.96-.128 2.234-2.352 3.7-4.322 3.7-1.34 0-2.608-.763-2.8-2.55.065-3.571.317-6.312.317-9.755 0-.956 0-1.978-.062-3.062v-.063c0-1.15-3.241-2.168-6.615-2.168-1.97 0-4.004.319-5.466 1.212-.445.319-.763 1.084-.763 1.656 0 .447-.193 4.4-.193 7.971 0 1.468.065 2.934.128 3.955-.57 2.485-3.113 3.953-5.596 3.953M168.411 251c-1.187 0-2.431-.574-3.5-1.893-.893-1.205-2.911-23.517-2.911-40.44 0-5.163.18-9.807.656-13.192.712-3.27 3.024-4.475 5.461-4.475 3.025 0 6.17 1.893 6.527 4.246.237 1.893.356 4.873.356 8.488 0 15.89-2.018 43.996-2.671 44.971-.89 1.377-2.375 2.295-3.918 2.295"/>
    <path d="M157.001 192.868c.043-1.892 1.065-3.917 3.165-3.867l.11.003c4.17.378 17.257 1.153 20.215 1.439 1.027.025 1.535 1.311 1.508 2.55-.03 1.242-.567 2.473-1.664 2.479-4.186.614-14.163.53-21.352.517-1.336-.031-2.02-1.54-1.982-3.12M157.001 247.868c.043-1.892 1.065-3.917 3.165-3.867l.11.003c4.17.378 17.257 1.153 20.215 1.439 1.027.025 1.535 1.311 1.508 2.55-.03 1.242-.567 2.473-1.664 2.479-4.186.614-14.163.53-21.352.517-1.336-.031-2.02-1.54-1.982-3.12M82.04 225c-7.366 0-8.913-5.567-8.913-15.989 0-4.48.283-9.903.516-16.129-2.158-.234-4.36-.565-4.643-1.98v-.046c0-.85 2.391-2.123 5.065-2.123.187-1.509.94-10.753 1.267-11.365.14-.943 1.503-1.368 2.957-1.368 1.453 0 3.003.471 3.282 1.271.233.756.327 1.698.327 2.738 0 2.641-.606 5.848-.889 7.921v.19c0 .425.187.519.656.519.89.14 5.254.471 5.912.659.516.19 1.264.802 1.264 1.464 0 .281-.14.565-.466.802-.847.565-5.397 1.13-7.32 1.177-.282 0-1.22 8.537-1.22 16.364 0 6.65.659 12.735 2.91 12.735h.044c3.521-.047 5.115-6.178 5.115-9.716v-.424c0-2.17 1.546-3.066 3.05-3.066 1.453 0 2.86.802 3.002 2.029 0 .187.044.424.044.708C94 214.906 92.313 225 82.276 225h-.236z"/>
    <path d="M73.67 189.007c-2.442 0-4.191 1.105-4.324 1.472.192.865 2.658 1.136 3.983 1.28l.624.072-.197 5.02c-.179 4.428-.335 8.25-.335 11.597 0 11.35 2.046 15.184 8.11 15.184h.233c10.76 0 10.884-12.319 10.884-12.844 0-.129-.013-.246-.024-.353-.01-.129-.022-.244-.022-.348-.084-.697-1.11-1.33-2.284-1.33-1.128 0-2.33.622-2.33 2.36v.42c0 3.21-1.436 10.27-5.708 10.327-1.573 0-3.598-1.382-3.598-13.323 0-4.6.313-8.925.5-11.093.503-5.83.724-5.83 1.379-5.83 2.068-.053 6.237-.652 6.84-1.057.048-.033.162-.131.162-.227 0-.238-.43-.67-.803-.807-.284-.08-2.163-.26-3.407-.378-1.016-.098-1.938-.186-2.298-.243h-.016c-.973 0-1.2-.649-1.2-1.193v-.186c.07-.567.151-1.098.238-1.667.286-1.882.638-4.225.638-6.197 0-1.035-.098-1.88-.292-2.512-.106-.304-1.176-.783-2.59-.783-1.333 0-2.19.394-2.247.777l-.07.222c-.19.544-.646 5.48-.89 8.132-.127 1.36-.23 2.465-.286 2.909l-.073.599h-.598zM81.763 225h-.233c-7.916 0-9.462-6.07-9.462-16.552 0-3.374.157-7.21.335-11.65l.151-3.747c-1.919-.23-4.187-.654-4.541-2.443L68 190.43c0-1.426 2.639-2.594 5.061-2.77.057-.552.13-1.362.216-2.29.541-5.806.776-7.86.987-8.504.222-1.152 1.582-1.866 3.569-1.866 1.63 0 3.458.534 3.874 1.721.243.8.36 1.754.36 2.942 0 2.076-.363 4.476-.655 6.403-.08.536-.157 1.037-.219 1.483.463.065 1.33.147 2.288.238 1.96.188 3.279.32 3.693.44.748.271 1.74 1.092 1.74 2.107 0 .523-.264 1.004-.743 1.352-1.033.692-5.226 1.17-7.113 1.278-.319 1.724-1.025 8.819-1.025 15.577 0 11.619 1.969 11.955 2.193 11.955 2.947-.038 4.41-5.765 4.41-8.958v-.422c0-2.575 1.849-3.727 3.682-3.727 1.898 0 3.458 1.125 3.63 2.619.006.142.014.213.022.293.014.145.03.309.03.487C94 215.705 91.44 225 81.764 225zM108.429 204.479c0-4.315-1.097-8.256-3.953-8.256h-.145c-2.046.092-3.045 4.638-3.045 9.324 0 4.918 1.094 9.973 3.38 9.973h.141c2.002 0 3.622-5.798 3.622-11.041m7.571.184c0 6.775-3.669 13.873-10.288 14.337h-.52c-5.86 0-9.192-7.236-9.192-14.196C96 198.31 98.903 192 105.38 192c7.282 0 10.62 6.216 10.62 12.663"/>
    <path  d="M104.004 196.706c-1.235.052-2.449 3.448-2.449 8.843 0 5.242 1.181 9.508 2.635 9.508 1.246 0 3.011-4.851 3.011-10.601 0-3.748-.842-7.75-3.197-7.75zm.325 19.738c-3.093 0-4.14-5.87-4.14-10.895 0-4.863.957-10.103 3.643-10.23h.172c2.902 0 4.563 3.331 4.563 9.137 0 5.026-1.473 11.988-4.238 11.988zm.563-24.057c-6.293 0-8.526 6.682-8.526 12.404 0 6.793 3.12 13.822 8.34 13.822h.511c6.1-.446 9.417-7.528 9.417-13.966 0-5.656-2.553-12.26-9.742-12.26zM104.706 220C98.402 220 95 212.164 95 204.791c0-6.865 3.058-13.791 9.892-13.791 7.673 0 11.108 6.854 11.108 13.647 0 7.062-3.76 14.843-10.734 15.353h-.56z"/>
    <path  d="M141.209 272.952c-6.855 1.1-14.533.824-21.387-1.1-6.033-1.65-12.065-1.65-17.549 0-7.129 1.924-14.532 2.2-21.935 1.1-43.87-6.598-74.58-51.41-74.306-100.072 0-21.169 5.758-43.437 17-54.709 10.694-10.722 26.046-16.22 44.42-16.22 4.66 0 9.596.275 14.805 1.1 6.307 1.1 12.339 2.474 18.371 4.398 3.288 1.1 6.855 1.65 10.42 1.65 3.564 0 7.129-.55 10.419-1.65 5.755-1.924 12.064-3.574 18.094-4.399 25.228-3.849 45.792 1.375 59.228 15.121 11.516 11.547 17.274 33.54 17 54.71 0 60.482-39.212 94.847-74.58 100.07m61.144-158.629c-14.532-14.57-37.29-20.619-63.886-16.495-6.58 1.1-12.887 2.474-19.194 4.674-1.92.55-3.838 1.1-6.032 1.374V19.75c0-1.374-1.1-2.749-2.742-2.749-1.645 0-2.742 1.1-2.742 2.75v83.85c-1.92-.275-4.113-.55-6.032-1.374-6.035-2.2-12.613-3.85-19.193-4.674-26.6-3.849-49.08 1.924-63.887 16.495C6.306 126.42 0 149.787 0 172.605c.274 51.136 32.629 98.697 79.239 105.57 3.018.55 6.035.825 9.05.825 4.936 0 10.143-.55 15.081-1.924 4.659-1.375 9.871-1.1 15.08 0 7.678 1.924 15.904 2.474 23.581 1.1 46.613-6.874 79.241-54.71 78.967-105.57 0-22.544-6.306-45.912-18.645-58.284M80.5 5.544c-4.388 0-7.956 3.568-7.956 7.956 0 4.385 3.568 7.956 7.956 7.956 4.385 0 7.956-3.57 7.956-7.956 0-4.388-3.57-7.956-7.956-7.956M80.5 27C73.054 27 67 20.943 67 13.5S73.054 0 80.5 0 94 6.057 94 13.5 87.946 27 80.5 27"/>
</svg>
