<svg xmlns="http://www.w3.org/2000/svg" xmlns:xlink="http://www.w3.org/1999/xlink" width="150" height="115" viewBox="0 0 150 115">
    <path d="M137.5 110h-125a7.5 7.5 0 0 1-7.5-7.5V95h44.59c14.317 13.335 36.505 13.335 50.82 0H145v7.5a7.5 7.5 0 0 1-7.5 7.5zm-95-42.5C42.5 49.55 57.05 35 75 35s32.5 14.55 32.5 32.5S92.95 100 75 100c-17.94-.02-32.48-14.56-32.5-32.5zM5 45h40.07c-10.093 13.303-10.093 31.698 0 45H5V45zm140 45h-40.07c10.095-13.302 10.095-31.697 0-45H145v45zM12.5 25h125a7.5 7.5 0 0 1 7.5 7.5V40h-44.59c-14.315-13.332-36.502-13.332-50.82 0H5v-7.5a7.5 7.5 0 0 1 7.5-7.5zm5-5h10v-2.5h-10V20zM54.045 5h41.91l7.5 15h-56.91l7.5-15zM122.5 20h10v-2.5h-10V20zm15 0v-5a2.5 2.5 0 0 0-2.5-2.5h-15a2.5 2.5 0 0 0-2.5 2.5v5h-8.455L99.75 1.383A2.5 2.5 0 0 0 97.5 0h-45a2.5 2.5 0 0 0-2.237 1.383L40.955 20H32.5v-5a2.5 2.5 0 0 0-2.5-2.5H15a2.5 2.5 0 0 0-2.5 2.5v5C5.6 20.008.008 25.6 0 32.5v70c.007 6.9 5.6 12.493 12.5 12.5h125c6.9-.007 12.493-5.6 12.5-12.5v-70c-.007-6.9-5.6-12.492-12.5-12.5z"/>
    <path d="M77.5 46.5A2.5 2.5 0 0 0 75 44c-12.972.013-23.487 10.528-23.5 23.5a2.5 2.5 0 0 0 5 0C56.51 57.288 64.787 49.01 75 49a2.5 2.5 0 0 0 2.5-2.5M15 35h15a2.5 2.5 0 0 0 0-5H15a2.5 2.5 0 0 0 0 5"/>
</svg>
