<svg xmlns="http://www.w3.org/2000/svg" width="306" height="259" viewBox="0 0 306 259">
  <path d="M276.562 223.864c-45.557 6.563-78.422 12.643-100.177 16.66-10.164 1.878-17.882 3.301-22.87 4.02V130.42l126.317-20.734v109.791c0 2.169-1.794 4.174-3.27 4.387zm-136.634 20.115l-115.301-19.89V93.93c0-3.23-1.422-6.847-2.831-8.993-5.068-7.716-8.207-21.254-8.207-29.376 0-14.834 12.406-26.06 31.533-29.85l16.524-1.373c5.888.109 11.994.809 18.176 2.083 38.328 7.873 71.95 37.583 71.95 63.575 0 9.297-3.927 20.237-7.442 23.806-2.609 2.652-4.122 6.288-4.32 10.064-.033.226-.064.443-.069.674 0 .045-.013.09-.013.135V243.98zm46.648-230.036c9.743-.682 19.06-.483 27.697.592 1.717.212 3.311.447 4.602.713 42.178 8.669 72.797 31.987 72.797 55.445 0 9.396-3.954 20.346-7.492 23.865-.244.239-.425.533-.647.786l-124.369 20.418c3.723-7.273 6.196-16.972 6.196-25.767 0-26.986-24.848-54.966-58.873-69.39l80.089-6.662zm35.03-11.97c-1.594-.326-3.555-.629-5.657-.886-9.498-1.18-19.703-1.4-30.415-.655L61.184 10.776C25.27 10.352 0 28.886 0 55.56c0 10.146 3.656 26.49 10.427 36.802.236.357.575 1.288.612 1.568v135.86a6.783 6.783 0 0 0 5.634 6.681l123.313 21.267a40.494 40.494 0 0 0 13.027.547c5.2-.623 13.412-2.141 25.845-4.436 21.646-4.002 54.362-10.046 99.651-16.574 8.357-1.21 14.911-9.025 14.911-17.798V105.331c0-.52.127-.957.349-1.174 6.554-6.51 11.491-20.897 11.491-33.464 0-25.649-25.863-56.845-83.654-68.72z"/>
  <path d="M67.024 103.13c-.363-.272-.77-.453-1.178-.633a6.887 6.887 0 0 0-1.268-.407 6.877 6.877 0 0 0-6.16 1.852c-.272.316-.59.678-.816 1.04-.271.36-.453.767-.634 1.174a5.9 5.9 0 0 0-.407 1.264c-.091.452-.136.904-.136 1.31 0 .452.045.904.136 1.356.09.406.226.858.407 1.264.181.407.363.814.634 1.175.227.361.544.723.816 1.039a7.034 7.034 0 0 0 4.8 1.942c.454 0 .907-.045 1.36-.135a4.47 4.47 0 0 0 1.268-.362c.408-.18.815-.361 1.178-.632.362-.226.724-.542 1.041-.813a7.021 7.021 0 0 0 1.948-4.834c0-1.761-.725-3.523-1.948-4.788a5.893 5.893 0 0 0-1.041-.813M93.43 145.366a6.84 6.84 0 0 0-1.993 4.788 6.76 6.76 0 0 0 1.993 4.788 6.877 6.877 0 0 0 4.801 1.988 6.877 6.877 0 0 0 4.801-1.988 6.76 6.76 0 0 0 1.993-4.788 6.84 6.84 0 0 0-1.993-4.788c-2.536-2.53-7.066-2.53-9.602 0M69.516 191.528c-.181-.406-.362-.768-.634-1.129-.227-.407-.544-.723-.815-1.034-.317-.317-.68-.588-1.042-.863-.362-.222-.77-.452-1.178-.633-.407-.13-.86-.27-1.268-.361a6.88 6.88 0 0 0-6.16 1.857c-.272.311-.589.627-.815 1.034-.272.361-.453.723-.634 1.13a6.255 6.255 0 0 0-.408 1.314c-.09.406-.136.854-.136 1.305a6.85 6.85 0 0 0 1.993 4.793 6.892 6.892 0 0 0 4.801 1.983c.453 0 .906-.045 1.359-.13.408-.091.86-.231 1.268-.407a4.155 4.155 0 0 0 1.178-.637 5.662 5.662 0 0 0 1.042-.809c1.223-1.27 1.947-3.026 1.947-4.793 0-.451-.045-.899-.136-1.305-.09-.456-.18-.908-.362-1.315"/>
</svg>
