<svg xmlns="http://www.w3.org/2000/svg" width="308" height="261" viewBox="0 0 308 261">
  <path d="M152.488 0L98.711 71.622 11.066 98.874l54.302 71.704-.182 88.57 87.302-27.517 87.309 27.516-.186-88.562 54.3-71.711-87.636-27.249L152.488 0zM74.803 167.417L26.69 103.89l77.73-24.165 48.07-64.024 48.072 64.024 77.726 24.162-48.11 63.536.17 78.86-77.859-24.536-77.848 24.536.163-78.866z"/>
  <path d="M207.803 184.918h-22.714c-2.615 0-4.742-2.134-4.742-4.756a4.748 4.748 0 0 1 4.742-4.742h22.714a4.754 4.754 0 0 1 4.748 4.742c-.003 2.625-2.134 4.756-4.748 4.756zm-75.108.078l-15.158.758.062-61.258.767-.085c1.949-.23 4.149-.487 5.12-.487 5.56 0 10.343-2.762 13.134-7.584 2.165-3.752 5.173-6.622 8.357-9.66 6.656-6.352 14.165-13.509 14.787-29.588.088.026.173.048.176.048 3.765 2.96 5.852 7.546 6.207 13.624.49 8.445-3.812 15.799-8.36 23.584l-1.461 2.508a4.81 4.81 0 0 0-.487 1.298h-.098c0 .305-.019.581-.019.886-.006.1-.006.198-.006.299-.242 24.247-7.728 33.767-26.488 33.767v9.428c29.046 0 34.914-20.592 35.794-38.607h7.882a14.11 14.11 0 0 0 1.349 5.516c-4.897 2.231-8.332 7.153-8.332 12.88 0 3.648 1.42 6.948 3.702 9.463-2.282 2.52-3.702 5.817-3.702 9.463 0 5.126 2.762 9.589 6.851 12.075-1.137 2.042-1.841 4.356-1.841 6.848 0 1.7.345 3.319.902 4.824h-39.138zm75.268-66.349a4.754 4.754 0 0 1 4.746 4.75 4.754 4.754 0 0 1-4.746 4.748h-20.944a4.757 4.757 0 0 1-4.749-4.749 4.757 4.757 0 0 1 4.749-4.749h20.944zm-27.874 28.421a4.759 4.759 0 0 1-4.755-4.752c0-2.615 2.134-4.746 4.755-4.746H209.695a4.752 4.752 0 0 1 4.748 4.746 4.754 4.754 0 0 1-4.748 4.752h-29.606zm34.354 14.174a4.754 4.754 0 0 1-4.748 4.752H180.089a4.759 4.759 0 0 1-4.755-4.752c0-2.614 2.134-4.745 4.755-4.745h29.606a4.752 4.752 0 0 1 4.748 4.745zm4.784-29.341c1.794-2.376 2.91-5.302 2.91-8.505 0-7.816-6.361-14.177-14.174-14.177h-20.944c-4.425 0-8.344 2.083-10.94 5.277h-7.506c4.064-7.27 7.518-14.982 6.978-24.282-.51-8.762-3.891-15.846-9.778-20.482-2.291-1.81-5.132-2.533-8.03-1.961-6.653 1.266-7.37 5.424-7.37 7.147 0 13.58-5.519 18.844-11.905 24.938-3.526 3.36-7.172 6.842-10.02 11.764-1.087 1.876-2.803 2.872-4.965 2.872-1.446 0-3.592.24-5.877.51l.01-9.328-30.163-.22-.066 9.428 20.793.154-.003 2.681a4.68 4.68 0 0 0-.748 2.533v70.494c0 .852.252 1.67.676 2.386l-.003 3.124-26.18-.098-.035 9.429 35.63.135.01-10.525 15.463-.777h53.53c.225 0 .427-.06.656-.069h20.627c7.813 0 14.177-6.358 14.177-14.183 0-3.168-1.084-6.063-2.844-8.426 2.885-2.6 4.74-6.32 4.74-10.498 0-3.645-1.425-6.942-3.7-9.46 2.275-2.517 3.7-5.817 3.7-9.466-.004-4.13-1.814-7.826-4.65-10.415zM33.24 4.364l38.8 38.802-6.665 6.666L26.57 11.03zM271.74 4.361l6.666 6.666-38.801 38.802-6.666-6.67zM252.76 193.615l4.714-8.165 47.52 27.44-4.714 8.166zM4.716 221.039L0 212.874l47.52-27.44 4.715 8.164z"/>
</svg>
