<svg xmlns="http://www.w3.org/2000/svg" xmlns:xlink="http://www.w3.org/1999/xlink" width="308" height="283" viewBox="0 0 308 283">
  <path d="M220.685 256.558h7.845v-8.357h-7.845v8.357zm-34.617-9.61h7.845v-8.253h-7.845v8.253zm19.138-13.06v8.253h8.995v-8.253h-8.995zm-33.469-25.07v8.253h7.845v-8.256h-7.845v.003zm-37.13 7.103h7.846v-8.253h-7.845v8.253zm-3.554-22.666h7.845v-8.253h-7.845v8.253zm-32.317-7.207h7.949v-8.253h-7.949v8.253zm138.894-25.384h7.845v-8.357h-7.845v8.357zm-147.26-.207h7.948V152.1h-7.949v8.357zm144.75-12.535h7.845v-8.253h-7.845v8.253zm-185.331-7.21h7.845v-8.253h-7.845v8.253zm147.26-13.892h7.845v-8.253h-7.845v8.253zm-14.327-5.85h7.845v-8.253h-7.845v8.253zm-131.156-7.728h7.845v-8.253h-7.845v8.253zM27.613 99.453h7.845V91.2h-7.845v8.253zM135.34 81.276h7.948v-8.253h-7.948v8.253zM29.915 71.562a21.906 21.906 0 0 1 4.499.104c.067.01.144-.01.21 0 4.304.601 8.378 2.587 12.026 5.642.137.117.284.19.418.311.485.421.997.896 1.466 1.36a34.02 34.02 0 0 1 1.673 1.775s28.301 32.722 57 60.168c.017.034.087-.033.104 0 2.373 2.27 4.749 4.51 7.112 6.686.02.033.087-.034.104 0 2.363 2.172 4.689 4.332 7.008 6.37h.107c2.313 2.036 4.555 4.099 6.794 5.954h.107c2.24 1.855 4.351 3.593 6.483 5.225h.104c2.128 1.624 4.317 3.426 6.693 5.117h.107a338.611 338.611 0 0 0 7.427 5.118h.104c2.584 1.738 5.214 3.57 7.949 5.328h.103c2.738 1.758 5.533 3.57 8.367 5.328h.108c5.696 3.527 11.462 7.05 17.256 10.446 11.643 6.832 23.113 13.183 32.631 18.384a1422.49 1422.49 0 0 0 12.55 6.79c7.233 3.854 11.728 6.116 11.819 6.163l.21.104c.52.324 1.071.769 1.567 1.15.134.1.284.204.418.314.345.277.613.531.944.836.894.815 1.727 1.638 2.51 2.61.044.057.054.15.104.204a28.67 28.67 0 0 1 1.359 1.882c.31.475.656.966.94 1.46.037.071.067.141.107.211.576 1.033 1.004 2.126 1.463 3.24.057.14.154.277.21.417.466 1.197.837 2.4 1.149 3.654.257 1.07.492 2.15.629 3.239.037.274.073.558.103.835.024.245-.016.489 0 .733.05.661.104 1.32.104 1.985-.02 4.984-1.446 9.894-4.602 13.996-9.347 12.157-24.27 13.995-38.07 9.088h-.104c-.73-.39-74.446-40.192-107.516-65.496-33.017-25.263-87.436-90.458-87.436-90.458a3.1 3.1 0 0 0-.315-.315c-4.505-4.278-7.393-12.264-7.323-20.266.07-8 3.046-15.647 8.786-19.846 1.69-1.233 3.387-2.199 5.02-3.028.499-.25.974-.515 1.466-.732.1-.043.214-.064.314-.104.221-.097.405-.224.626-.314.388-.154.77-.284 1.152-.418.177-.06.348-.15.522-.207.495-.16.977-.294 1.466-.418.532-.14 1.044-.214 1.566-.314.776-.14 1.543-.254 2.302-.314v.003zm19.456-27.37a3.369 3.369 0 0 0-3.043 3.66 3.366 3.366 0 0 0 2.939 3.026s6.118 1.497 13.073 4.178c6.95 2.684 14.706 6.766 17.467 10.135 2.811 3.433 3.122 8.39 3.346 14.31.221 5.916.399 12.866 5.02 18.592 4.636 5.75 11.865 8.132 18.616 10.342 6.747 2.21 13.08 4.309 16.316 7.314 3.497 3.245 4.481 6.601 5.96 10.967 1.48 4.365 3.601 9.61 9.204 14.206 6.054 4.967 14.994 6.722 23.742 8.671 8.746 1.949 17.314 4.061 21.755 7.521 4.685 3.647 6.546 8.24 8.682 13.474 2.131 5.232 4.504 11.148 10.562 15.25 6.275 4.251 14.16 4.445 21.44 4.806 7.28.358 14.02.863 18.096 3.55 4.247 2.805 9.127 9.59 12.655 15.567 3.524 5.973 5.857 11.07 5.857 11.07a3.345 3.345 0 0 0 4.193 2.19 3.34 3.34 0 0 0 1.871-4.903s-2.43-5.466-6.168-11.807c-3.745-6.34-8.622-13.608-14.75-17.652-6.305-4.162-14.17-4.342-21.44-4.7-7.269-.361-13.946-.92-17.989-3.657-4.26-2.888-6.027-6.993-8.156-12.22-2.135-5.232-4.595-11.486-10.773-16.296-6.426-5.004-15.617-6.826-24.369-8.775-8.755-1.952-17.109-4.101-21.024-7.313-4.368-3.584-5.583-6.976-7.005-11.175-1.426-4.202-2.942-9.232-7.742-13.685-5.06-4.696-12.215-6.611-18.825-8.774-6.61-2.166-12.518-4.583-15.48-8.253-2.982-3.694-3.336-8.624-3.554-14.52-.224-5.897-.371-12.73-4.92-18.282-4.598-5.615-12.841-9.285-20.181-12.117C57.4 46.062 50.94 44.4 50.94 44.4a3.41 3.41 0 0 0-.944-.207 3.263 3.263 0 0 0-.625 0zm195.474-6.685a3.352 3.352 0 0 0-2.824 1.986c-5.76 12.424-1.905 23.12 1.151 31.966 1.526 4.419 2.828 8.48 3.032 12.324.204 3.844-.515 7.494-3.45 11.803a3.346 3.346 0 0 0 .857 4.656 3.355 3.355 0 0 0 4.685-.896c3.688-5.408 4.87-10.82 4.602-15.877-.271-5.054-1.908-9.74-3.45-14.207-3.086-8.931-6.065-16.803-1.36-26.948a3.343 3.343 0 0 0-1.546-4.47 3.367 3.367 0 0 0-1.382-.337 4.936 4.936 0 0 0-.315 0zM97.378 41.582h7.844v-8.253h-7.844v8.253zm-8.475-10.967h7.845v-8.253h-7.845v8.253zM39.12 12.126c6.895-.561 13.324 1.685 18.933 6.057.358.281.693.538 1.044.836.573.485 1.122.933 1.674 1.464.9.86 1.774 1.745 2.614 2.714 0 0 59.342 68.398 99.779 99.34 40.292 30.833 123.464 73.56 123.832 73.746l.208.107c.653.405 1.262.886 1.884 1.357.947.722 1.858 1.438 2.718 2.297.291.29.552.635.837.942 9.146 10.042 12.142 27.708 2.928 39.694-9.264 12.054-23.016 15.454-36.815 13.16.853-7.828-1.302-15.814-5.542-22.248-.08-.13-.128-.288-.208-.418-1.198-1.762-2.473-3.44-3.976-4.91-.037-.04-.067-.067-.104-.104-.037-.033-.073-.074-.103-.104-1.527-1.507-3.18-2.848-5.02-3.97-.071-.038-.141-.07-.212-.104 0 0-71.274-36.736-104.484-62.154-33.157-25.37-83.878-83.462-83.878-83.462a34.261 34.261 0 0 0-2.092-2.193c-5.027-4.957-11.182-8.323-17.886-9.193-5.127-.665-10.445.194-15.793 2.507-5.332-5.237-8.585-14.744-8.471-24.234.114-9.613 3.56-18.886 10.562-24.023 6.068-4.453 12.052-6.656 17.571-7.104zm38.907-5.431c6.72.17 12.956 3.396 17.99 9.192 0 0 50.486 58.048 84.925 84.402 34.295 26.243 104.85 62.591 105.221 62.778l.208.104c9.314 5.813 13.775 20.066 9.31 31.337-1.178-1.08-2.456-2.029-3.765-2.924-.425-.365-.877-.753-1.362-1.043-.067-.04-.14-.074-.207-.107 0 0-84.012-43.23-123.207-73.225-39.145-29.953-98.732-98.4-98.732-98.4-.542-.626-1.084-1.12-1.673-1.672-1.667-1.731-3.45-3.32-5.332-4.7 5.87-4.262 11.457-5.876 16.627-5.746l-.003.004zm112.644-1.36a3.348 3.348 0 0 0-2.406 1.985c-5.763 12.424-1.908 23.12 1.151 31.965 1.526 4.42 2.825 8.48 3.033 12.325.2 3.844-.52 7.494-3.451 11.803a3.337 3.337 0 0 0 .12 4.726 3.347 3.347 0 0 0 5.319-.966c3.684-5.408 4.973-10.924 4.705-15.981-.268-5.057-1.91-9.634-3.45-14.103-3.086-8.931-6.068-16.8-1.363-26.948a3.341 3.341 0 0 0-1.435-4.503 3.35 3.35 0 0 0-2.223-.304zM78.234.008c-6.848-.177-14.037 2.176-20.918 7.207a22.226 22.226 0 0 0-1.88 1.568C50.196 6.27 44.473 5.057 38.49 5.544c-6.891.559-14.006 3.283-20.918 8.357C8.38 20.651 4.426 32.09 4.292 43.253c-.124 10.229 2.945 20.46 9.097 27.474-.633.414-1.252.792-1.881 1.253C3.559 77.793.088 87.597.002 97.154c-.08 9.42 3.015 18.899 9.203 24.966l.211.314c.422.505 53.827 64.83 88.273 91.191 34.358 26.293 108.875 66.221 108.875 66.221.138.08.275.147.419.21 15.854 5.673 34.506 3.42 45.811-11.28a29.452 29.452 0 0 0 4.395-8.043c15.9 2.721 32.658-1.731 43.612-15.985 10.315-13.417 8.822-31.725.104-44.29 8.417-15.012 2.39-34.88-11.192-43.14-.067-.037-.14-.07-.207-.104 0 0-71.378-36.842-104.589-62.257-33.157-25.374-83.881-83.462-83.881-83.462C95 4.545 87.022.227 78.237.006l-.003.003z"/>
</svg>
