<svg xmlns="http://www.w3.org/2000/svg" xmlns:xlink="http://www.w3.org/1999/xlink" width="308" height="322" viewBox="0 0 308 322">
<path d="M67.917 142.883v47.45c-9.908-3.293-16.944-12.633-16.944-23.725 0-11.092 7.036-20.432 16.944-23.725zm17.352-18.028l-17.352.134c-19.5 3.748-34.296 21.061-34.296 41.619 0 20.51 14.723 37.819 34.162 41.62h17.486v-83.373zm0-58.022c5.878 3.384 12.806 6.186 20.74 8.676 21.352 6.698 49.823 10.438 81.204 10.438 31.377 0 59.721-3.74 81.069-10.438 7.938-2.49 14.996-5.292 20.874-8.676v208.495c0 1.054-.767 3.258-5.149 6.507-4.386 3.249-11.743 6.81-21.148 9.76-18.814 5.904-45.835 9.76-75.646 9.76s-56.828-3.856-75.642-9.76c-9.41-2.95-16.767-6.511-21.153-9.76-4.381-3.25-5.149-5.453-5.149-6.507v-50.699H67.783c-28.545-3.956-50.43-28.353-50.43-58.021 0-29.715 21.955-54.121 50.564-58.021h17.352V66.833zm101.944-50.16c29.715 0 56.685 3.76 75.373 9.626 9.344 2.932 16.537 6.403 20.879 9.626 4.338 3.219 5.284 5.557 5.284 7.05 0 1.492-.946 3.825-5.284 7.049-4.342 3.218-11.535 6.693-20.879 9.626-18.688 5.86-45.658 9.76-75.373 9.76-29.716 0-56.55-3.9-75.239-9.76-9.344-2.933-16.667-6.408-21.013-9.626-4.343-3.224-5.423-5.557-5.423-7.05 0-1.492 1.08-3.83 5.423-7.05 4.346-3.222 11.669-6.693 21.013-9.625 18.688-5.865 45.523-9.626 75.239-9.626zm0-16.676c-31.381 0-59.852 4.013-81.204 10.711-10.671 3.349-19.582 7.258-26.431 12.337-6.854 5.08-11.661 11.839-11.661 19.93 0 .594.082 1.175.135 1.76-.066.36-.113.72-.135 1.085v45.276C29.837 95.122.001 127.488.001 166.608c0 39.116 29.837 71.486 67.916 75.508v33.212c0 8.528 5.388 15.417 12.203 20.47 6.81 5.055 15.686 9.007 26.297 12.338 21.222 6.66 49.514 10.572 80.796 10.572 31.281 0 59.574-3.913 80.796-10.572 10.61-3.331 19.486-7.283 26.301-12.337 6.81-5.054 12.199-11.943 12.199-20.471V45.82a8.763 8.763 0 0 0-.27-1.896c.01-.277.135-.538.135-.815 0-8.09-4.672-14.984-11.522-20.064-6.854-5.08-15.899-8.988-26.57-12.337-21.348-6.698-49.692-10.71-81.07-10.71z"/>
</svg>
